<?xml version="1.0" encoding="utf-8"?>
<!-- Generator: Adobe Illustrator 24.3.0, SVG Export Plug-In . SVG Version: 6.00 Build 0)  -->
<svg version="1.1" id="Layer_1" xmlns="http://www.w3.org/2000/svg" xmlns:xlink="http://www.w3.org/1999/xlink" x="0px" y="0px"
	 viewBox="0 0 1291.12 376.38" style="enable-background:new 0 0 1291.12 376.38;" xml:space="preserve">
<g>
	<g>
		<g>
			<g>
				<path style="fill:#195138;" d="M259.17,0.78c-0.34,0.07-0.69,0.14-1.04,0.22C258,0.65,257.87,0.32,257.74,0L259.17,0.78z"/>
				<path style="fill:#195138;" d="M258.13,0.99c-26.25,5.55-79.41,20.88-125.79,66.66c-43.02,42.48-61.78,93-69.57,134.79
					c-3.8,20.43-5,38.76-5.13,53.05c26.04-1.49,49.27,9.66,56.24,13.4l-0.03,0.02c0,0,0.35,0.18,0.99,0.51
					c0.07,0.04,0.13,0.08,0.2,0.11c0.08,0.04,0.15,0.08,0.22,0.12c0.48,0.26,0.73,0.42,0.73,0.42v-0.04
					c6.55,3.61,26.67,15.84,39.76,36.38c12.34-8.3,27.41-19.77,42.64-34.65c29.92-29.22,60.49-71.6,72.31-128.99
					C283.85,78.97,267.76,26.03,258.13,0.99z M239.57,129.06c-9.96-1.71-20.26-1.11-30.23,1.91c-9.98,3.01-18.9,8.22-26.25,15.19
					c-1.2,1.14-3.16,0.1-2.89-1.54c3.5-20.4-2.85-41.45-17.08-56.5c-1.13-1.21-0.08-3.16,1.55-2.88c9.98,1.73,20.3,1.12,30.28-1.89
					c9.96-3.01,18.88-8.21,26.22-15.16c1.2-1.14,3.16-0.1,2.88,1.55c-1.72,9.96-1.11,20.26,1.9,30.22
					c3.01,9.96,8.21,18.88,15.16,26.22C242.26,127.39,241.21,129.35,239.57,129.06z"/>
				<path style="fill:#195138;" d="M116.34,266.91l-2.46,1.99c-6.97-3.73-30.2-14.89-56.24-13.4C38.1,256.61,16.99,264.86,0,288.74
					c0.39-5.97,3.73-46.22,39.25-73.16c7.76-5.88,15.73-10.13,23.52-13.14c29.53-11.41,56.6-5.22,60.88-4.16L116.34,266.91z"/>
				<path style="fill:#195138;" d="M161.37,376.38c11.53-29.16,5.48-52.54-5.62-69.94c-13.09-20.55-33.2-32.78-39.75-36.39
					l0.34-3.14l53.57-43.51c3.04,2.86,21.04,20.3,28.48,48.38c2.51,9.45,3.83,20.11,2.97,31.83
					C198.11,348.08,166.16,372.79,161.37,376.38z"/>
				<path style="fill:#195138;" d="M114.85,269.43c-0.64-0.34-0.99-0.51-0.99-0.51l0.02-0.02
					C114.24,269.09,114.57,269.27,114.85,269.43z"/>
				<path style="fill:#195138;" d="M116,270.05c-0.36-0.19-0.67-0.37-0.95-0.51c-0.07-0.04-0.13-0.08-0.2-0.11
					c-0.27-0.16-0.6-0.34-0.97-0.53l2.46-1.99L116,270.05z"/>
				<path style="fill:#195138;" d="M116,270.08c0,0-0.33-0.2-0.95-0.54c-0.07-0.04-0.13-0.08-0.2-0.11
					c-0.27-0.16-0.6-0.34-0.97-0.53l2.46-1.99l-0.34,3.14L116,270.08z"/>
			</g>
			<path style="fill:#489F5E;" d="M125.79,298.5c0,0,13.51,59.25-71.25,68.72c0,0-28.45-68.15,35.8-94.34l0.08,14.96
				c0.05,10.69,10.4,18.3,20.61,15.17L125.79,298.5z"/>
		</g>
		<g>
			<g>
				<g>
					<g>
						<path style="fill:#195138;" d="M490.17,179.31v97.26l-22.66-12.73c-15.28,10.18-32.17,15.28-50.67,15.28
							c-16.46,0-31.74-4.07-45.83-12.22c-14.09-8.15-25.21-19.22-33.35-33.22c-8.15-14-12.22-29.28-12.22-45.83
							s4.07-31.86,12.22-45.96c8.15-14.09,19.26-25.2,33.35-33.35c14.09-8.15,29.36-12.22,45.83-12.22c7.47,0,14.72,0.85,21.77,2.55
							c7.04,1.7,13.66,4.16,19.86,7.38c6.19,3.23,11.97,7.09,17.31,11.58c5.35,4.5,10.14,9.46,14.38,14.89l-26.48,15.53
							c-5.77-6.79-12.73-12.09-20.88-15.91c-8.15-3.82-16.8-5.73-25.97-5.73c-16.8,0-31.19,5.98-43.15,17.95
							c-11.97,11.97-17.95,26.39-17.95,43.28c0,16.89,5.98,31.32,17.95,43.28c11.97,11.97,26.35,17.95,43.15,17.95
							c16.63,0,30.97-5.94,43.03-17.82v-34.37L490.17,179.31z"/>
					</g>
					<g>
						<path style="fill:#195138;" d="M525.56,159.96c13.58-13.58,30-20.37,49.26-20.37c19.26,0,35.68,6.79,49.27,20.37
							c13.58,13.58,20.37,29.96,20.37,49.14c0,19.18-6.79,35.6-20.37,49.26c-13.58,13.66-30,20.5-49.27,20.5
							c-19.26,0-35.69-6.83-49.26-20.5c-13.58-13.66-20.37-30.08-20.37-49.26C505.19,189.92,511.98,173.54,525.56,159.96z
							 M547.07,236.98c7.72,7.73,16.97,11.58,27.75,11.58c10.78,0,20.03-3.86,27.75-11.58c7.72-7.72,11.58-17.01,11.58-27.88
							c0-10.86-3.86-20.11-11.58-27.75c-7.73-7.64-16.97-11.46-27.75-11.46c-10.78,0-20.03,3.82-27.75,11.46
							c-7.72,7.64-11.58,16.89-11.58,27.75C535.49,219.96,539.35,229.25,547.07,236.98z"/>
					</g>
					<g>
						<path style="fill:#195138;" d="M684.81,268.55c-2.46,3.99-5.98,6.54-10.57,7.64c-4.58,1.1-8.87,0.38-12.86-2.16
							c-3.99-2.55-6.54-6.07-7.64-10.57c-1.11-4.5-0.38-8.74,2.16-12.73c2.55-3.99,6.07-6.53,10.57-7.64
							c4.5-1.1,8.74-0.42,12.73,2.04c3.99,2.46,6.53,5.98,7.64,10.57C687.95,260.27,687.27,264.56,684.81,268.55z"/>
					</g>
					<g>
						<path style="fill:#195138;" d="M850.42,150.28c0,11.71-3.52,22.19-10.57,31.44c-7.05,9.25-16.08,15.4-27.11,18.46l48.37,76.38
							h-35.64l-47.36-74.34H738.4v74.34h-30.3V98.35h30.3h60.08c14.26,0,26.48,5.09,36.66,15.28
							C845.33,123.81,850.42,136.03,850.42,150.28z M738.4,128.64v43.28h60.08c5.94,0,11.03-2.12,15.28-6.36
							c4.24-4.24,6.37-9.33,6.37-15.28c0-5.94-2.12-11.03-6.37-15.28c-4.24-4.24-9.34-6.37-15.28-6.37H738.4z"/>
					</g>
					<g>
						<path style="fill:#195138;" d="M1126.13,157.72c-2.37-2.07-3.08-0.9-5.59-2.59l-0.49,46.03c0.46,2.47,0.7,5.03,0.7,7.69
							c0,2.66-0.24,5.23-0.7,7.7v50.3c0.23-0.16,0.47-0.3,0.7-0.46v64.11h30.3V141.64L1126.13,157.72z"/>
					</g>
					<g>
						<path style="fill:#195138;" d="M1190.31,132.21c-4.58,0.68-8.78-0.34-12.6-3.05c-3.82-2.71-6.11-6.4-6.87-11.08
							c-0.76-4.67,0.25-8.91,3.05-12.73c2.8-3.82,6.49-6.07,11.08-6.75c3.05-0.51,5.98-0.21,8.78,0.89c2.8,1.11,5.17,2.8,7.13,5.09
							c1.95,2.29,3.18,4.96,3.69,8.02c0.51,3.05,0.21,5.98-0.89,8.78c-1.11,2.8-2.84,5.18-5.22,7.13
							C1196.08,130.47,1193.36,131.7,1190.31,132.21z M1172.49,276.57V161.23l30.3-19.35v134.68H1172.49z"/>
					</g>
					<g>
						<path style="fill:#195138;" d="M1284.25,246.01h6.87v30.3h-6.87c-14.6,0-27.07-5.17-37.43-15.53
							c-10.36-10.35-15.53-22.74-15.53-37.17v-51.68h-12.48v-30.04h12.48v-27.5l30.3,19.6v7.89h27.24v30.04h-27.24v51.68
							c0,6.11,2.2,11.37,6.62,15.79C1272.62,243.81,1277.97,246.01,1284.25,246.01z"/>
					</g>
				</g>
				<g>
					<g>
						<g>
							<g>
								<path style="fill:#195138;" d="M909.52,174.56c0.91-0.48,1.85-0.91,2.78-1.29c3.47-1.45,7.16-2.34,11.07-2.71
									c0.19-0.01,0.39-0.04,0.59-0.04c1.12-0.1,2.26-0.14,3.42-0.14c2.96,0,5.8,0.29,8.52,0.87c13.01,1.25,25.15,7.49,33.73,17.48
									l26.72,31.1c0.45-3.32,0.68-6.73,0.68-10.23c0-19.18-6.79-35.56-20.37-49.14c-10.09-10.09-21.76-16.43-34.99-19.03
									c-4.57-0.9-9.34-1.34-14.28-1.34c-5,0-9.81,0.45-14.42,1.38c-0.94,0.18-1.86,0.39-2.77,0.62
									c-12.05,2.89-22.74,9.03-32.07,18.37c-13.58,13.58-20.37,29.95-20.37,49.14s6.79,35.6,20.37,49.26
									c13.58,13.67,29.99,20.51,49.26,20.51c19.27,0,35.69-6.83,49.27-20.51c6.89-6.91,12.01-14.54,15.41-22.89l-25.48-29.65
									c0.1,1.07,0.14,2.16,0.14,3.28c0,10.87-3.87,20.16-11.58,27.87c-7.73,7.73-16.98,11.58-27.76,11.58
									c-10.77,0-20.02-3.86-27.75-11.58c-7.73-7.71-11.58-17.01-11.58-27.87s3.86-20.12,11.58-27.75
									C902.69,178.81,905.99,176.38,909.52,174.56z"/>
							</g>
						</g>
						<g>
							<g>
								<path style="fill:#195138;" d="M1130.4,160.45c-13.58-13.58-29.99-20.37-49.26-20.37c-19.27,0-35.68,6.79-49.26,20.37
									c-5.48,5.48-9.86,11.43-13.12,17.82l5.04,5.85l18.22,21.19c0.89-9.05,4.68-16.87,11.38-23.48
									c7.73-7.64,16.97-11.46,27.75-11.46c10.78,0,20.02,3.81,27.75,11.46c7.73,7.63,11.58,16.88,11.58,27.75
									s-3.86,20.16-11.58,27.87c-3.54,3.54-7.41,6.27-11.6,8.18c-0.88,0.41-1.79,0.78-2.71,1.12c-3.48,1.28-7.16,2.01-11.06,2.22
									c-0.79,0.04-1.58,0.07-2.38,0.07c-9.09,0-17.09-2.74-24-8.26c-0.01-0.01-0.04-0.01-0.06-0.03
									c-4.1-2.63-7.85-5.87-11.07-9.63l-32.66-38.02c-1.23,5.23-1.83,10.73-1.83,16.48c0,19.18,6.78,35.6,20.37,49.26
									c2.09,2.11,4.26,4.05,6.49,5.84c0.03,0.03,0.06,0.04,0.08,0.07c12.21,9.74,26.44,14.6,42.69,14.6
									c4.42,0,8.69-0.36,12.81-1.09c0.92-0.17,1.85-0.34,2.75-0.54c12.7-2.75,23.93-9.05,33.7-18.88
									c13.58-13.66,20.37-30.08,20.37-49.26S1143.98,174.03,1130.4,160.45z"/>
							</g>
						</g>
					</g>
					<g>
						<g>
							<polygon style="fill:#195138;" points="923.3,170.47 923.38,170.47 923.38,170.56 							"/>
						</g>
						<g>
							<path style="fill:#195138;" d="M1083.53,248.82v0.15l-0.62,30.13c-16.03-0.33-31.48-5.41-44.45-14.35
								c-0.03-0.03-0.06-0.04-0.08-0.07c-5.63-3.88-10.8-8.52-15.34-13.81l-26.67-31.05l-26.72-31.1
								c-8.58-9.98-20.71-16.22-33.73-17.48c-2.73-0.58-5.56-0.87-8.52-0.87c-1.16,0-2.3,0.04-3.42,0.14l-0.59-0.04l0.62-29.91
								l8.74,0.18c3,0.06,5.98,0.29,8.92,0.67c19.69,2.6,37.9,12.35,50.95,27.57l20.73,24.11l32.67,38.02
								c3.22,3.76,6.97,7,11.07,9.63c0.01,0.01,0.04,0.01,0.06,0.03C1064.95,245.79,1074.08,248.63,1083.53,248.82z"/>
						</g>
					</g>
				</g>
			</g>
			<g>
				<path style="fill:#489F5E;" d="M446.19,331.18c-0.52,0.03-1.04,0.04-1.56,0.04c-1.54,0-2.96-0.19-4.28-0.58
					c-1.32-0.38-2.35-0.82-3.11-1.32c-0.75-0.49-1.43-1.06-2.04-1.71c-0.6-0.64-0.99-1.11-1.15-1.4c-0.16-0.29-0.3-0.53-0.41-0.72
					l4.49-2.02l-0.04-0.04c0.06,0.11,0.14,0.25,0.25,0.41c0.11,0.16,0.37,0.43,0.78,0.78c0.41,0.36,0.88,0.66,1.42,0.91
					c0.54,0.25,1.27,0.46,2.2,0.64c0.93,0.18,1.96,0.21,3.09,0.1c0.99-0.05,1.85-0.19,2.59-0.41c0.74-0.22,1.3-0.45,1.67-0.68
					c0.37-0.23,0.68-0.52,0.93-0.86c0.25-0.34,0.4-0.6,0.45-0.78c0.06-0.18,0.11-0.4,0.17-0.68c0.14-0.77-0.06-1.47-0.58-2.1
					c-1.04-1.23-2.95-1.85-5.72-1.85c-2.22,0-4.2-0.34-5.95-1.03c-1.74-0.69-3.15-1.66-4.22-2.92c-1.48-1.78-2.02-3.73-1.61-5.84
					c0.16-0.85,0.44-1.65,0.82-2.39c0.38-0.74,0.95-1.48,1.69-2.22c0.74-0.74,1.77-1.36,3.09-1.85c1.32-0.49,2.87-0.81,4.65-0.95
					c1.78-0.14,3.43-0.03,4.94,0.31c1.51,0.34,2.69,0.77,3.54,1.28c0.85,0.51,1.62,1.11,2.31,1.81c0.69,0.7,1.12,1.2,1.32,1.5
					c0.19,0.3,0.33,0.56,0.41,0.78l-4.44,2.02l0.04,0.08c-0.06-0.11-0.14-0.25-0.27-0.41c-0.12-0.16-0.39-0.42-0.8-0.78
					c-0.41-0.36-0.88-0.67-1.4-0.93c-0.52-0.26-1.25-0.47-2.18-0.64c-0.93-0.16-1.96-0.21-3.09-0.12c-0.99,0.08-1.85,0.23-2.59,0.43
					c-0.74,0.21-1.3,0.43-1.69,0.66c-0.38,0.23-0.69,0.52-0.93,0.86c-0.23,0.34-0.38,0.6-0.45,0.78c-0.07,0.18-0.12,0.4-0.14,0.68
					c-0.14,0.6,0.05,1.21,0.58,1.81c1.21,1.45,3.33,2.18,6.38,2.18c4.31,0,7.48,1.21,9.51,3.62c1.48,1.81,2.02,3.86,1.6,6.13
					c-0.16,0.85-0.44,1.65-0.82,2.39c-0.38,0.74-0.95,1.48-1.71,2.22s-1.79,1.36-3.11,1.85
					C449.48,330.73,447.95,331.05,446.19,331.18z"/>
				<path style="fill:#489F5E;" d="M514.92,302.01h5.31l-11.98,28.81h-5.35l-6.38-15.27l-0.12-0.29l-0.12,0.29l-6.38,15.27h-5.35
					l-11.98-28.81h5.31l1.4,3.42l1.44,3.46l6.5,15.64l6.42-15.35l0.12-0.29h5.31h-0.04l0.12,0.29l6.42,15.35L514.92,302.01z"/>
				<path style="fill:#489F5E;" d="M542.66,330.81h-4.9v-28.81h4.9V330.81z"/>
				<path style="fill:#489F5E;" d="M582.95,304.48c1.65,1.65,2.47,3.63,2.47,5.95c0,2.32-0.82,4.29-2.47,5.93
					c-1.65,1.63-3.62,2.45-5.93,2.45h-9.71v12.02h-4.9v-28.81h4.9h9.71C579.33,302.01,581.3,302.83,582.95,304.48z M567.31,306.9v7
					h9.71c0.96,0,1.78-0.34,2.47-1.03c0.69-0.69,1.03-1.51,1.03-2.47c0-0.96-0.34-1.78-1.03-2.47c-0.69-0.69-1.51-1.03-2.47-1.03
					H567.31z"/>
				<path style="fill:#489F5E;" d="M603.57,302.01h20.08v4.9h-15.19v7.12h13.38v4.86h-13.38v7.04h15.19v4.9h-15.19h-4.9v-4.9v-7.04
					v-4.86v-7.12V302.01z"/>
				<path style="fill:#489F5E;" d="M701.89,302.01h4.9v28.81h-4.9v-22.47v-0.04l-9.38,22.51h-5.56l-9.38-22.51v0.04v22.47h-4.9
					v-28.81h4.9h2.67l9.47,22.8l9.51-22.8H701.89z"/>
				<path style="fill:#489F5E;" d="M736.42,302.01h5.35l11.98,28.81h-5.31h-0.45c-0.93-1.54-2.19-2.76-3.77-3.66
					c-1.58-0.91-3.3-1.36-5.17-1.36s-3.59,0.45-5.16,1.36c-1.58,0.91-2.83,2.13-3.77,3.66h-0.41h-5.31h0.04h-0.04
					c0.14-0.41,0.33-0.85,0.58-1.32L736.42,302.01z M739.05,320.65c1.92,0,3.79,0.34,5.6,1.03l-5.56-13.38l-5.56,13.38
					C735.32,320.99,737.16,320.65,739.05,320.65z"/>
				<path style="fill:#489F5E;" d="M790.21,306.9h-10v23.91h-4.9V306.9h-10.04v-4.9h10.04h4.9h10V306.9z"/>
				<path style="fill:#489F5E;" d="M820.46,306.57c-1.34,0-2.63,0.26-3.85,0.78c-1.22,0.52-2.27,1.22-3.15,2.1
					c-0.88,0.88-1.58,1.93-2.1,3.15c-0.52,1.22-0.78,2.5-0.78,3.85c0,2.74,0.97,5.08,2.9,7.02c1.94,1.93,4.26,2.9,6.98,2.9
					c0.99,0,1.95-0.14,2.88-0.43c0.93-0.29,1.79-0.69,2.57-1.21c0.78-0.52,1.48-1.14,2.08-1.85l4.28,2.47
					c-1.37,1.81-3.09,3.24-5.14,4.3s-4.28,1.58-6.67,1.58c-2.66,0-5.13-0.66-7.41-1.98c-2.28-1.32-4.07-3.11-5.39-5.37
					c-1.32-2.26-1.98-4.73-1.98-7.41c0-2.67,0.66-5.15,1.98-7.43c1.32-2.28,3.11-4.07,5.39-5.39c2.28-1.32,4.75-1.98,7.41-1.98
					c2.39,0,4.61,0.53,6.67,1.58c2.06,1.06,3.79,2.49,5.19,4.3l-4.32,2.51c-0.91-1.1-2.02-1.95-3.33-2.57
					C823.34,306.88,821.94,306.57,820.46,306.57z"/>
				<path style="fill:#489F5E;" d="M868.73,314.02v-12.02h4.86v28.81h-4.86v-11.93h-13.46v11.93h-4.9v-28.81h4.9v12.02H868.73z"/>
				<path style="fill:#489F5E;" d="M963.64,302.01h5.31l-11.98,28.81h-5.35l-6.38-15.27l-0.12-0.29l-0.12,0.29l-6.38,15.27h-5.35
					l-11.98-28.81h5.31l1.4,3.42l1.44,3.46l6.5,15.64l6.42-15.35l0.12-0.29h5.31h-0.04l0.12,0.29l6.42,15.35L963.64,302.01z"/>
				<path style="fill:#489F5E;" d="M990.92,303.65c2.28-1.32,4.75-1.98,7.43-1.98c2.67,0,5.14,0.66,7.41,1.98
					c2.26,1.32,4.06,3.11,5.39,5.39c1.33,2.28,2,4.75,2,7.43c0,2.67-0.67,5.14-2,7.41c-1.33,2.26-3.13,4.05-5.39,5.37
					c-2.26,1.32-4.73,1.98-7.41,1.98c-2.68,0-5.15-0.66-7.43-1.98c-2.28-1.32-4.07-3.11-5.39-5.37c-1.32-2.26-1.98-4.73-1.98-7.41
					c0-2.67,0.66-5.15,1.98-7.43C986.85,306.77,988.64,304.97,990.92,303.65z M998.33,326.37c1.78,0,3.44-0.45,4.96-1.34
					c1.52-0.89,2.73-2.1,3.62-3.62c0.89-1.52,1.34-3.18,1.34-4.96c0-2.72-0.97-5.04-2.9-6.98c-1.93-1.93-4.27-2.9-7.02-2.9
					c-1.78,0-3.44,0.44-4.96,1.32c-1.52,0.88-2.72,2.08-3.6,3.6c-0.88,1.52-1.32,3.18-1.32,4.96c0,2.74,0.97,5.08,2.9,7.02
					C993.29,325.4,995.61,326.37,998.33,326.37z"/>
				<path style="fill:#489F5E;" d="M1054.67,310.4c0,1.89-0.57,3.59-1.71,5.08c-1.14,1.5-2.6,2.49-4.38,2.98l7.82,12.35h-5.76
					l-7.65-12.02h-6.42v12.02h-4.9v-28.81h4.9h9.71c2.31,0,4.28,0.82,5.93,2.47C1053.85,306.12,1054.67,308.1,1054.67,310.4z
					 M1036.56,306.9v7h9.71c0.96,0,1.78-0.34,2.47-1.03c0.69-0.69,1.03-1.51,1.03-2.47c0-0.96-0.34-1.78-1.03-2.47
					c-0.69-0.69-1.51-1.03-2.47-1.03H1036.56z"/>
				<path style="fill:#489F5E;" d="M1097.6,302.01l-10.17,12.14l11.07,16.67h-5.84l-8.52-12.76l-4.81,5.72v7.04h-4.9v-28.81h4.9
					v14.16l1.98-2.35l3.29-3.91l6.63-7.9H1097.6z"/>
			</g>
		</g>
	</g>
</g>
<g>
</g>
<g>
</g>
<g>
</g>
<g>
</g>
<g>
</g>
<g>
</g>
<g>
</g>
<g>
</g>
<g>
</g>
<g>
</g>
<g>
</g>
<g>
</g>
<g>
</g>
<g>
</g>
<g>
</g>
</svg>
